<svg xmlns="http://www.w3.org/2000/svg" viewBox="0 0 128 128" xmlns:v="https://vecta.io/nano"><path d="M0 0h128v128H0z" fill="#fff"/><path d="M20.31 91.32a4 4 0 0 1 4.12 3.17h-1.85A2.21 2.21 0 0 0 20.31 93a2.62 2.62 0 0 0-2.63 2.88 2.67 2.67 0 0 0 2.62 2.84 2.22 2.22 0 0 0 2.32-1.61h1.83a3.92 3.92 0 0 1-4.14 3.34 4.59 4.59 0 0 1 0-9.17zm8.08 7.57l-.69 1.47h-2v-.25l4.11-8.74h.88l4.07 8.74v.25h-2l-.7-1.47zm.61-1.61h2.48l-1.24-2.94zm9.67 1.38h3.72v1.7h-5.63v-8.91h1.91zm9.85-7.34a4 4 0 0 1 4.11 3.17h-1.85A2.2 2.2 0 0 0 48.52 93a2.63 2.63 0 0 0-2.64 2.88 2.67 2.67 0 0 0 2.62 2.84 2.21 2.21 0 0 0 2.32-1.61h1.84a3.93 3.93 0 0 1-4.14 3.34 4.59 4.59 0 0 1 0-9.17zm6.57 6.07v-5.94H57v5.91a1.49 1.49 0 0 0 1.66 1.44 1.47 1.47 0 0 0 1.64-1.44v-5.91h1.89v5.94c0 2-1.65 3.09-3.53 3.09s-3.57-1.09-3.57-3.09zm17.49 2.69v.27h-2l-1.83-2.94h-1.6v2.94H65.2v-8.92h3.81a3 3 0 0 1 3.15 3.06 2.83 2.83 0 0 1-1.59 2.62zM69 95.84a1.3 1.3 0 0 0 1.31-1.39A1.27 1.27 0 0 0 69 93.1h-1.91v2.74zm7.58 3.05l-.69 1.47h-2v-.25L78 91.37h.88l4.12 8.74v.25h-2l-.7-1.47zm.62-1.61h2.48l-1.24-2.94zm6.28-4.18v-1.65h6.6v1.65h-2.37v7.26h-1.84V93.1zm14.35.01h-3.54v1.81h3.31v1.67h-3.31v2h3.64v1.73h-5.57v-8.87h5.47zm4.17 4.56c0 .82.93 1.15 1.8 1.15s1.71-.16 1.71-1.09-1.1-1.07-2-1.14c-1.62-.14-3.25-.65-3.25-2.49s1.62-2.78 3.39-2.78 3.4.67 3.4 2.67h-1.78c-.11-.72-.86-1-1.62-1s-1.52.38-1.52 1.07.78.93 1.71 1c1.88.16 3.5.55 3.5 2.64s-1.82 2.72-3.58 2.76-3.63-.87-3.63-2.82z" fill="#53575a"/><g fill="#f88d2b"><path d="M16.25 27.51v53.33h53.33V27.51zm26.66 42.67c-8.837 0-16-7.163-16-16s7.163-16 16-16 16 7.163 16 16-7.163 16-16 16z"/><circle cx="96.25" cy="54.18" r="16"/></g></svg>